<?xml version="1.0" standalone="no"?>
<!DOCTYPE svg PUBLIC "-//W3C//DTD SVG 20010904//EN"
 "http://www.w3.org/TR/2001/REC-SVG-20010904/DTD/svg10.dtd">
<svg version="1.0" xmlns="http://www.w3.org/2000/svg"
 width="366.000000pt" height="366.000000pt" viewBox="0 0 366.000000 366.000000"
 preserveAspectRatio="xMidYMid meet">
<metadata>
Created by potrace 1.11, written by Peter Selinger 2001-2013
</metadata>
<g transform="translate(0.000000,366.000000) scale(0.100000,-0.100000)"
fill="#000000" stroke="none">
<path d="M1867 3535 c-8 -30 -47 -137 -57 -160 -34 -78 -49 -113 -55 -135 -6
-21 -54 -137 -101 -247 -8 -17 -14 -36 -14 -42 0 -6 -9 -30 -19 -53 -11 -24
-38 -90 -61 -148 -24 -58 -53 -130 -65 -160 -13 -30 -37 -95 -55 -145 -18 -49
-39 -99 -45 -110 -7 -11 -18 -38 -25 -60 -7 -22 -18 -53 -26 -70 -31 -70 -147
-363 -155 -392 -15 -50 -108 -213 -142 -247 -68 -68 -59 -66 -320 -66 l-239 0
20 -32 c11 -18 23 -55 27 -82 l8 -48 76 -35 c42 -20 105 -49 141 -65 126 -58
196 -91 276 -131 45 -22 88 -37 97 -34 8 3 18 21 22 39 9 47 67 210 114 323 9
21 30 75 57 148 9 23 22 56 29 72 25 57 225 581 225 589 0 4 6 22 14 39 16 38
72 176 93 232 19 48 40 99 58 140 7 17 23 57 35 90 11 33 27 74 34 90 12 26
35 91 52 144 3 10 9 6 19 -13 8 -16 15 -33 15 -39 0 -6 8 -29 19 -51 10 -23
25 -59 34 -81 45 -116 180 -464 189 -490 6 -16 19 -48 28 -70 9 -22 27 -67 40
-100 12 -33 28 -73 35 -90 7 -16 32 -84 55 -150 24 -66 46 -124 51 -130 9 -12
79 -189 79 -201 1 -5 9 -27 20 -49 11 -22 19 -46 20 -53 0 -7 4 -20 9 -30 24
-47 78 -187 87 -227 4 -16 10 -35 15 -40 4 -6 11 -32 16 -58 l8 -48 60 30 c61
31 173 81 179 81 2 0 78 36 169 80 91 44 170 80 175 80 6 0 16 24 22 53 7 28
19 61 26 72 31 44 27 45 -211 45 -261 0 -280 5 -351 92 -17 22 -104 179 -104
190 0 5 -11 33 -24 61 -13 29 -34 81 -46 117 -13 36 -26 70 -30 75 -4 6 -15
33 -24 60 -10 28 -24 64 -31 80 -7 17 -38 95 -70 175 -32 80 -77 193 -101 252
-24 59 -44 110 -44 113 0 7 -88 230 -111 282 -11 23 -19 47 -19 53 0 5 -4 18
-10 28 -13 22 -92 220 -136 342 -54 147 -50 138 -57 115z"/>
<path d="M580 1223 c0 -73 -25 -210 -54 -290 l-15 -42 37 6 c20 4 48 9 62 13
44 11 272 -79 500 -198 52 -27 148 -77 213 -110 l117 -61 0 79 0 79 -52 35
c-103 69 -170 150 -211 256 -11 27 -23 38 -53 49 -21 8 -113 50 -204 93 -91
44 -204 99 -252 122 l-88 42 0 -73z"/>
<path d="M3110 1270 c-33 -18 -202 -99 -432 -209 -84 -40 -108 -56 -108 -71 0
-52 -111 -203 -162 -223 -10 -3 -18 -11 -18 -17 0 -5 -7 -10 -15 -10 -9 0 -18
-6 -21 -14 -3 -8 -16 -17 -30 -20 -23 -6 -24 -10 -24 -81 l0 -75 26 10 c36 14
209 97 264 127 55 29 232 115 360 174 91 42 99 44 188 43 50 0 92 1 92 2 0 2
-9 27 -19 56 -27 73 -41 158 -41 250 0 86 -2 88 -60 58z"/>
<path d="M990 585 c0 -3 35 -23 78 -45 42 -22 95 -50 117 -63 107 -63 298
-167 306 -167 5 0 9 -4 9 -10 0 -5 5 -10 11 -10 6 0 42 -19 81 -41 39 -23 94
-54 122 -69 28 -15 73 -39 99 -54 26 -14 54 -26 61 -26 14 0 235 118 252 135
6 6 42 26 80 45 38 19 71 38 72 42 2 5 7 8 11 8 9 0 131 67 336 184 106 60
117 68 80 56 -16 -6 -39 -14 -50 -19 -11 -5 -60 -25 -110 -44 -49 -19 -148
-57 -220 -85 -71 -27 -148 -56 -170 -62 -40 -13 -114 -43 -147 -61 -10 -5 -23
-9 -30 -9 -7 -1 -31 -9 -53 -20 -45 -22 -71 -25 -80 -10 -3 5 -25 15 -48 21
-23 6 -59 19 -82 29 -22 10 -67 28 -100 40 -33 12 -98 38 -145 56 -47 19 -93
34 -102 34 -9 0 -19 4 -22 8 -3 5 -49 26 -103 47 -54 21 -128 51 -165 66 -64
28 -88 34 -88 24z"/>
</g>
</svg>
